<?xml version="1.0" encoding="UTF-8" standalone="no" ?>
<!DOCTYPE svg PUBLIC "-//W3C//DTD SVG 1.1//EN" "http://www.w3.org/Graphics/SVG/1.1/DTD/svg11.dtd">
<svg xmlns="http://www.w3.org/2000/svg" xmlns:xlink="http://www.w3.org/1999/xlink" version="1.1" width="1080" height="1080" viewBox="0 0 1080 1080" xml:space="preserve">
<desc>Created with Fabric.js 5.2.4</desc>
<defs>
</defs>
<rect x="0" y="0" width="100%" height="100%" fill="transparent"></rect>
<g transform="matrix(1 0 0 1 540 540)" id="4a7a2d76-55ca-4b39-a34d-d774acd792f0"  >
<rect style="stroke: none; stroke-width: 1; stroke-dasharray: none; stroke-linecap: butt; stroke-dashoffset: 0; stroke-linejoin: miter; stroke-miterlimit: 4; fill: rgb(255,255,255); fill-rule: nonzero; opacity: 1; visibility: hidden;" vector-effect="non-scaling-stroke"  x="-540" y="-540" rx="0" ry="0" width="1080" height="1080" />
</g>
<g transform="matrix(1 0 0 1 540 540)" id="16c44d67-5fb0-4a88-818c-d1c07f144c46"  >
</g>
<g transform="matrix(10.94 0 0 10.94 540 741.23)"  >
<g style="" vector-effect="non-scaling-stroke"   >
		<g transform="matrix(1 0 0 1 -19.41 -6.28)"  >
<path style="stroke: none; stroke-width: 1; stroke-dasharray: none; stroke-linecap: butt; stroke-dashoffset: 0; stroke-linejoin: miter; stroke-miterlimit: 4; fill: rgb(255,255,255); fill-rule: nonzero; opacity: 1;" vector-effect="non-scaling-stroke"  transform=" translate(-28.4, -59.7)" d="M 39.549 42.217 C 37.457 41.535 28.490000000000002 38.61 24.041 37.119 C 21.785 42.938 9.867 74.422 13.974 79.836 C 18.502 85.807 34.766000000000005 78.80799999999999 39.501000000000005 79.836 C 44.237 80.867 43.653000000000006 77.576 43.653000000000006 77.576 L 39.549 42.217 z" stroke-linecap="round" />
</g>
		<g transform="matrix(1 0 0 1 -9.41 -40.47)"  >
<path style="stroke: none; stroke-width: 1; stroke-dasharray: none; stroke-linecap: butt; stroke-dashoffset: 0; stroke-linejoin: miter; stroke-miterlimit: 4; fill: rgb(255,255,255); fill-rule: nonzero; opacity: 1;" vector-effect="non-scaling-stroke"  transform=" translate(-38.4, -25.5)" d="M 51.475 24.534 C 50.233000000000004 22.837 43.167 23.195999999999998 43.167 23.195999999999998 C 43.167 23.195999999999998 41.374 19.348999999999997 40.219 18.636999999999997 C 38.869 17.807999999999996 35.098 17.955 35.098 17.955 C 35.098 17.955 35.449 12.383999999999999 33.749 11.968999999999998 C 30.505000000000003 11.175999999999998 26.19 28.476999999999997 24.833000000000002 34.30199999999999 C 28.485000000000003 35.782999999999994 35.324 38.42399999999999 39.184000000000005 39.06699999999999 L 39.14600000000001 38.73899999999999 C 39.14600000000001 38.73899999999999 39.28000000000001 35.92599999999999 41.15700000000001 35.25499999999999 C 42.41900000000001 34.80399999999999 48.66200000000001 33.52299999999999 50.40600000000001 31.770999999999987 C 51.693 30.475 52.558 26.01 51.475 24.534 z" stroke-linecap="round" />
</g>
		<g transform="matrix(1 0 0 1 12.29 -24.82)"  >
<path style="stroke: none; stroke-width: 1; stroke-dasharray: none; stroke-linecap: butt; stroke-dashoffset: 0; stroke-linejoin: miter; stroke-miterlimit: 4; fill: rgb(255,255,255); fill-rule: nonzero; opacity: 1;" vector-effect="non-scaling-stroke"  transform=" translate(-60.09, -41.16)" d="M 57.232 52.332 C 60.019999999999996 51.491 64.361 49.951 67.943 47.659 C 67.804 45.795 68.405 43.716 68.66 42.448 C 69.06099999999999 40.438 68.526 39.29 67.453 36.416 C 67.26 35.898999999999994 66.38600000000001 30.160999999999998 64.64 29.982999999999997 C 62.918 29.807999999999996 60.619 35.611 60.619 35.611 C 60.619 35.611 55.659 35.611 55.066 37.823 C 54.353 40.480000000000004 51.612 41.925 51.505 42.313 C 51.093 43.809000000000005 51.818000000000005 47.872 54.202000000000005 48.492000000000004 C 55.656 48.871 56.709 50.762 57.232 52.332 z" stroke-linecap="round" />
</g>
		<g transform="matrix(1 0 0 1 24.65 -0.08)"  >
<path style="stroke: none; stroke-width: 1; stroke-dasharray: none; stroke-linecap: butt; stroke-dashoffset: 0; stroke-linejoin: miter; stroke-miterlimit: 4; fill: rgb(255,255,255); fill-rule: nonzero; opacity: 1;" vector-effect="non-scaling-stroke"  transform=" translate(-72.46, -65.9)" d="M 69.159 50.501 C 68.929 50.288999999999994 68.744 50.050999999999995 68.58600000000001 49.797999999999995 C 66.659 50.843999999999994 60.86700000000001 53.91199999999999 57.65400000000001 54.791 C 58.96700000000001 60.977 58.21700000000001 76.597 58.25600000000001 77.26599999999999 C 58.31000000000001 78.258 57.66300000000001 78.87499999999999 58.14300000000001 79.666 C 58.87500000000001 80.87599999999999 60.31300000000001 80.99 62.010000000000005 80.68299999999999 C 63.708000000000006 80.371 76.34700000000001 83.875 84.266 80.56299999999999 C 93.981 74.712 77.774 53.88 69.159 50.501 z" stroke-linecap="round" />
</g>
		<g transform="matrix(1 0 0 1 -37.26 6.87)"  >
<path style="stroke: none; stroke-width: 1; stroke-dasharray: none; stroke-linecap: butt; stroke-dashoffset: 0; stroke-linejoin: miter; stroke-miterlimit: 4; fill: rgb(255,255,255); fill-rule: nonzero; opacity: 1;" vector-effect="non-scaling-stroke"  transform=" translate(-10.55, -72.84)" d="M 13.561 77.88 C 6.812 72.69 6.75 60.746 5.025 64.354 C 3.412 67.728 4.989 75.87 8.004 79.445 C 10.774 82.729 16.485999999999997 82.57199999999999 16.713 80.51299999999999" stroke-linecap="round" />
</g>
		<g transform="matrix(1 0 0 1 42 -0.92)"  >
<path style="stroke: none; stroke-width: 1; stroke-dasharray: none; stroke-linecap: butt; stroke-dashoffset: 0; stroke-linejoin: miter; stroke-miterlimit: 4; fill: rgb(255,255,255); fill-rule: nonzero; opacity: 1;" vector-effect="non-scaling-stroke"  transform=" translate(-89.8, -65.06)" d="M 87.215 73.905 C 89.867 75.574 94.686 68.463 90.69 66.065 C 88.17399999999999 64.556 87.896 64.097 87.18599999999999 62.925999999999995 C 85.478 60.117999999999995 87.71499999999999 52.26599999999999 92.023 51.254999999999995 C 95.225 50.504999999999995 95.43299999999999 53.446 93.67399999999999 54.40599999999999 C 89.49699999999999 56.88899999999999 89.14699999999999 61.05699999999999 91.99 63.08899999999999 C 93.597 64.23799999999999 94.72999999999999 65.05699999999999 95.42999999999999 67.618 C 96.419 71.22999999999999 93.451 76.976 87.74799999999999 78.78299999999999 C 87.74799999999999 78.78299999999999 84.576 79.49599999999998 83.99099999999999 78.19699999999999" stroke-linecap="round" />
</g>
		<g transform="matrix(1 0 0 1 -12.36 47.77)" style=""  >
		<text xml:space="preserve" font-family="'Helvetica Neue', Helvetica, Arial-Unicode, Arial, Sans-serif" font-size="4" font-style="normal" font-weight="bold" style="stroke: none; stroke-width: 1; stroke-dasharray: none; stroke-linecap: butt; stroke-dashoffset: 0; stroke-linejoin: miter; stroke-miterlimit: 4; fill: rgb(255,255,255); fill-rule: nonzero; opacity: 1; white-space: pre;" ><tspan x="-35.45" y="1.26" >Anne Caroline Bittencourt Gonçalves</tspan></text>
</g>
		<g transform="matrix(1 0 0 1 -26.81 51.77)" style=""  >
		<text xml:space="preserve" font-family="'Helvetica Neue', Helvetica, Arial-Unicode, Arial, Sans-serif" font-size="4" font-style="normal" font-weight="bold" style="stroke: none; stroke-width: 1; stroke-dasharray: none; stroke-linecap: butt; stroke-dashoffset: 0; stroke-linejoin: miter; stroke-miterlimit: 4; fill: rgb(255,255,255); fill-rule: nonzero; opacity: 1; white-space: pre;" ><tspan x="-21" y="1.26" >from the Noun Project</tspan></text>
</g>
</g>
</g>
</svg>