<?xml version="1.0" encoding="UTF-8" standalone="no" ?>
<!DOCTYPE svg PUBLIC "-//W3C//DTD SVG 1.1//EN" "http://www.w3.org/Graphics/SVG/1.1/DTD/svg11.dtd">
<svg xmlns="http://www.w3.org/2000/svg" xmlns:xlink="http://www.w3.org/1999/xlink" version="1.1" width="1080" height="1080" viewBox="0 0 1080 1080" xml:space="preserve">
<desc>Created with Fabric.js 5.2.4</desc>
<defs>
</defs>
<rect x="0" y="0" width="100%" height="100%" fill="transparent"></rect>
<g transform="matrix(1 0 0 1 540 540)" id="4a7a2d76-55ca-4b39-a34d-d774acd792f0"  >
<rect style="stroke: none; stroke-width: 1; stroke-dasharray: none; stroke-linecap: butt; stroke-dashoffset: 0; stroke-linejoin: miter; stroke-miterlimit: 4; fill: rgb(255,255,255); fill-rule: nonzero; opacity: 1; visibility: hidden;" vector-effect="non-scaling-stroke"  x="-540" y="-540" rx="0" ry="0" width="1080" height="1080" />
</g>
<g transform="matrix(1 0 0 1 540 540)" id="16c44d67-5fb0-4a88-818c-d1c07f144c46"  >
</g>
<g transform="matrix(8.8 0 0 8.8 424.38 650.38)"  >
<g style="" vector-effect="non-scaling-stroke"   >
		<g transform="matrix(1 0 0 1 13.63 -57.95)"  >
<path style="stroke: none; stroke-width: 1; stroke-dasharray: none; stroke-linecap: butt; stroke-dashoffset: 0; stroke-linejoin: miter; stroke-miterlimit: 4; fill: rgb(255,255,255); fill-rule: nonzero; opacity: 1;" vector-effect="non-scaling-stroke"  transform=" translate(-60.07, -18.04)" d="M 92.68 19.083 C 91.168 16.5 89.522 13.945999999999998 87.742 11.433999999999997 C 87.36 10.894999999999998 86.936 10.658999999999997 86.24300000000001 10.731999999999998 C 85.549 10.805999999999997 85.29700000000001 11.311999999999998 85.16000000000001 11.901999999999997 C 84.82400000000001 13.363999999999997 84.48800000000001 14.825999999999997 84.15100000000001 16.287999999999997 C 65.912 12.090999999999998 46.84700000000001 12.710999999999997 28.85200000000001 18.147999999999996 C 27.77900000000001 18.470999999999997 27.02400000000001 19.768999999999995 27.33700000000001 20.718999999999998 C 27.65000000000001 21.668 28.98300000000001 22.284999999999997 30.00900000000001 21.976999999999997 C 47.33500000000001 16.742999999999995 65.69200000000001 16.144999999999996 83.254 20.185999999999996 C 82.992 21.322999999999997 82.73100000000001 22.459999999999997 82.46900000000001 23.596999999999998 C 82.33300000000001 24.188999999999997 82.32600000000001 24.746 82.82900000000001 25.104 C 83.33200000000001 25.462 83.751 25.433999999999997 84.28200000000001 25.125 C 86.75900000000001 23.688 89.34400000000001 22.344 92.03300000000002 21.104 C 92.82 20.741 93.122 19.841 92.68 19.083 z" stroke-linecap="round" />
</g>
		<g transform="matrix(1 0 0 1 9.93 -8.42)"  >
<path style="stroke: none; stroke-width: 1; stroke-dasharray: none; stroke-linecap: butt; stroke-dashoffset: 0; stroke-linejoin: miter; stroke-miterlimit: 4; fill: rgb(255,255,255); fill-rule: nonzero; opacity: 1;" vector-effect="non-scaling-stroke"  transform=" translate(-56.37, -67.57)" d="M 81.003 67.365 C 80.157 67.05699999999999 79.131 66.97099999999999 78.493 66.949 C 78.946 65.338 78.80999999999999 63.637 78.09599999999999 62.104 C 77.30599999999998 60.409 75.904 59.124 74.14699999999999 58.484 C 72.63699999999999 57.936 70.96199999999999 57.937000000000005 69.502 58.435 C 69.535 57.482 69.384 56.551 69.05 55.693000000000005 C 68.38799999999999 53.99700000000001 67.05199999999999 52.709 65.289 52.068000000000005 C 63.52 51.425000000000004 61.592 51.56400000000001 60.021 52.349000000000004 L 65.747 34.676 C 67.209 30.658 65.482 26.599000000000004 61.731 25.232 C 60.939 24.944 60.129000000000005 24.798 59.324 24.798 C 56.354 24.798 53.708999999999996 26.794999999999998 52.574 29.915 L 42.266 60.239 C 41.352 60.376 39.934999999999995 60.711999999999996 37.967 61.516999999999996 C 31.177 64.298 25.426 74.90599999999999 28.028999999999996 85.67999999999999 C 30.924999999999997 97.678 36.93899999999999 104.536 48.14 108.613 C 51.285000000000004 109.758 54.24 110.338 56.921 110.338 C 63.565 110.338 67.724 106.92699999999999 71.414 103.43299999999999 C 76.48400000000001 98.633 84.696 76.17599999999999 85.043 75.22099999999999 C 86.136 72.217 84.249 68.546 81.003 67.365 z M 82.225 74.195 C 79.92699999999999 80.50699999999999 73.137 97.67099999999999 69.35199999999999 101.25399999999999 C 65.96499999999999 104.46099999999998 62.46599999999999 107.338 56.92099999999999 107.338 C 54.58999999999999 107.338 51.980999999999995 106.818 49.16499999999999 105.794 C 38.88999999999999 102.05499999999999 33.60999999999999 96.023 30.943999999999992 84.977 C 29.389999999999993 78.543 31.795999999999992 67.28800000000001 39.102999999999994 64.29400000000001 C 39.894999999999996 63.97000000000001 40.56999999999999 63.73700000000001 41.13199999999999 63.570000000000014 L 37.76499999999999 73.47700000000002 C 37.49799999999999 74.26100000000002 37.91799999999999 75.11400000000002 38.702999999999996 75.38000000000002 C 39.48799999999999 75.64600000000003 40.339999999999996 75.22600000000003 40.605 74.44200000000002 L 55.403 30.90900000000002 C 56.275999999999996 28.51000000000002 58.528999999999996 27.25700000000002 60.705 28.05000000000002 C 62.92 28.857000000000017 63.833999999999996 31.15900000000002 62.911 33.70000000000002 L 54.274 60.353000000000016 C 54.037 61.085000000000015 54.392 61.878000000000014 55.096000000000004 62.18800000000002 C 55.80200000000001 62.49900000000002 56.625 62.225000000000016 57.005 61.555000000000014 L 59.257000000000005 57.58600000000001 C 59.298 57.51300000000001 59.333000000000006 57.43700000000001 59.362 57.35800000000001 C 60.120000000000005 55.27200000000001 62.262 54.15800000000001 64.261 54.88600000000001 C 65.21499999999999 55.23300000000001 65.905 55.88900000000001 66.253 56.78200000000001 C 66.607 57.68900000000001 66.587 58.77800000000001 66.198 59.84800000000001 L 65.175 62.66000000000001 C 65.17399999999999 62.66200000000001 65.173 62.66400000000001 65.173 62.66600000000001 C 64.89 63.445000000000014 65.291 64.30600000000001 66.069 64.58900000000001 C 66.848 64.87200000000001 67.708 64.47100000000002 67.991 63.692000000000014 C 68.564 62.118000000000016 70.075 61.05900000000001 71.751 61.05900000000001 C 72.21600000000001 61.05900000000001 72.676 61.14100000000001 73.11800000000001 61.302000000000014 C 74.12200000000001 61.667000000000016 74.924 62.40300000000001 75.37500000000001 63.37000000000001 C 75.82600000000002 64.33700000000002 75.87400000000001 65.42500000000001 75.50900000000001 66.42900000000002 L 73.28600000000002 72.53700000000002 C 73.00300000000001 73.31400000000002 73.40400000000001 74.17600000000002 74.18200000000002 74.45900000000002 C 74.95600000000002 74.74200000000002 75.82000000000002 74.34200000000001 76.10400000000001 73.56300000000002 L 77.41000000000001 69.97700000000002 C 77.58300000000001 69.95700000000002 77.81500000000001 69.94200000000002 78.108 69.94200000000002 C 78.828 69.94200000000002 79.57900000000001 70.03900000000002 79.976 70.18300000000002 C 81.66 70.797 82.752 72.746 82.225 74.195 z" stroke-linecap="round" />
</g>
		<g transform="matrix(1 0 0 1 -18.8 57.44)" style=""  >
		<text xml:space="preserve" font-family="'Helvetica Neue', Helvetica, Arial-Unicode, Arial, Sans-serif" font-size="5" font-style="normal" font-weight="bold" style="stroke: none; stroke-width: 1; stroke-dasharray: none; stroke-linecap: butt; stroke-dashoffset: 0; stroke-linejoin: miter; stroke-miterlimit: 4; fill: rgb(255,255,255); fill-rule: nonzero; opacity: 1; white-space: pre;" ><tspan x="-27.65" y="1.57" >Created by Jeff Portaro</tspan></text>
</g>
		<g transform="matrix(1 0 0 1 -20.19 62.44)" style=""  >
		<text xml:space="preserve" font-family="'Helvetica Neue', Helvetica, Arial-Unicode, Arial, Sans-serif" font-size="5" font-style="normal" font-weight="bold" style="stroke: none; stroke-width: 1; stroke-dasharray: none; stroke-linecap: butt; stroke-dashoffset: 0; stroke-linejoin: miter; stroke-miterlimit: 4; fill: rgb(255,255,255); fill-rule: nonzero; opacity: 1; white-space: pre;" ><tspan x="-26.25" y="1.57" >from the Noun Project</tspan></text>
</g>
</g>
</g>
</svg>